<svg xmlns="http://www.w3.org/2000/svg" xmlns:xlink="http://www.w3.org/1999/xlink" xmlns:lucid="lucid" width="914" height="1219.33"><g transform="translate(-20.000000000000007 -58.73594132029348)" lucid:page-tab-id="0_0"><path d="M380 84.74c0-3.32 2.7-6 6-6h228c3.3 0 6 2.68 6 6v51.33c0 3.3-2.7 6-6 6H386c-3.3 0-6-2.7-6-6z" stroke="#000" stroke-opacity="0" stroke-width="3" fill="#fff" fill-opacity="0"/><use xlink:href="#a" transform="matrix(1,0,0,1,385,83.73594132029348) translate(10.506172839506206 35.194444444444436)"/><use xlink:href="#b" transform="matrix(1,0,0,1,385,83.73594132029348) translate(128.82716049382714 35.194444444444436)"/><path d="M120 175.07c11.05 0 20 13.43 20 30s-8.95 30-20 30H60c-11.05 0-20-13.43-20-30s8.95-30 20-30z" stroke="#5e5e5e" stroke-width="3" fill="#fff"/><use xlink:href="#c" transform="matrix(1,0,0,1,45.00000000000001,180.0692746536268) translate(17.901234567901238 30.27777777777778)"/><path d="M300 181.07c0-3.3 2.7-6 6-6h148c3.3 0 6 2.7 6 6v48c0 3.3-2.7 6-6 6H306c-3.3 0-6-2.7-6-6z" stroke="#5e5e5e" stroke-width="3" fill="#fff"/><use xlink:href="#d" transform="matrix(1,0,0,1,312,187.0692746536268) translate(18.679012345679013 22.27777777777778)"/><path d="M142.5 205.07H280" stroke="#5e5e5e" stroke-width="2" fill="none"/><path d="M142.53 206.07h-1.1l.07-.97-.03-1.03h1.06z" fill="#5e5e5e"/><path d="M295.26 205.07L281 209.7v-9.27z" stroke="#5e5e5e" stroke-width="2" fill="#5e5e5e"/><use xlink:href="#e" transform="matrix(1,0,0,1,152.12742396617773,209.06927465362682) translate(0 14.21875)"/><path d="M120 268.07c11.05 0 20 13.43 20 30s-8.95 30-20 30H60c-11.05 0-20-13.43-20-30s8.95-30 20-30z" stroke="#5e5e5e" stroke-width="3" fill="#fff"/><use xlink:href="#c" transform="matrix(1,0,0,1,45.00000000000001,273.0692746536268) translate(17.901234567901238 30.27777777777778)"/><path d="M300 274.07c0-3.3 2.7-6 6-6h148c3.3 0 6 2.7 6 6v48c0 3.3-2.7 6-6 6H306c-3.3 0-6-2.7-6-6z" stroke="#5e5e5e" stroke-width="3" fill="#fff"/><use xlink:href="#d" transform="matrix(1,0,0,1,312,280.0692746536268) translate(18.679012345679013 22.27777777777778)"/><path d="M142.46 296.94h2.95m3.94 0h5.9m3.92 0h5.9m3.93 0h5.88m3.93 0h5.9m3.93 0h5.9m3.93 0h5.9m3.92 0h5.9m3.93 0h5.9m3.93 0h5.9m3.92 0h5.9m3.93 0h5.9m3.92 0h5.9m3.93 0h5.9m3.92 0H280" stroke="#a3d977" stroke-width="2" fill="none"/><path d="M142.5 297.94h-1l-.07-2h1.06z" fill="#a3d977"/><path d="M295.26 296.94L281 301.58v-9.27z" stroke="#a3d977" stroke-width="2" fill="#fff"/><use xlink:href="#f" transform="matrix(1,0,0,1,167.56536283433178,300.94072692124126) translate(5.63009645061728 14.222222222222223)"/><use xlink:href="#g" transform="matrix(1,0,0,1,167.56536283433178,300.94072692124126) translate(51.951084104938275 14.222222222222223)"/><use xlink:href="#h" transform="matrix(1,0,0,1,167.56536283433178,300.94072692124126) translate(0.005000000000002558 32)"/><path d="M462.5 391.07h2.95m3.92 0h5.9m3.93 0h5.9m3.92 0h5.9m3.92 0h5.9m3.92 0h5.9m3.92 0h5.9m3.92 0h5.9m3.92 0h5.9m3.93 0h5.9m3.92 0h5.9m3.92 0h5.88m3.93 0h5.9m3.93 0h5.9m3.92 0H600" stroke="#a3d977" stroke-width="2" fill="none"/><path d="M462.53 392.07h-1.03v-2h1.03z" fill="#a3d977"/><path d="M615.26 391.07L601 395.7v-9.27z" stroke="#a3d977" stroke-width="2" fill="#fff"/><use xlink:href="#f" transform="matrix(1,0,0,1,481.2190600049392,395.0692746536268) translate(0 14.222222222222223)"/><use xlink:href="#i" transform="matrix(1,0,0,1,481.2190600049392,395.0692746536268) translate(46.320987654320994 14.222222222222223)"/><path d="M300 367.07c0-3.3 2.7-6 6-6h148c3.3 0 6 2.7 6 6v48c0 3.3-2.7 6-6 6H306c-3.3 0-6-2.7-6-6z" stroke="#5e5e5e" stroke-width="3" fill="#fff"/><use xlink:href="#d" transform="matrix(1,0,0,1,312,373.0692746536268) translate(18.679012345679013 22.27777777777778)"/><path d="M620 367.07c0-3.3 2.7-6 6-6h148c3.3 0 6 2.7 6 6v48c0 3.3-2.7 6-6 6H626c-3.3 0-6-2.7-6-6z" stroke="#5e5e5e" stroke-width="3" fill="#c1e4f7"/><use xlink:href="#j" transform="matrix(1,0,0,1,632,373.0692746536268) translate(27.938271604938272 22.27777777777778)"/><use xlink:href="#k" transform="matrix(1,0,0,1,632,373.0692746536268) translate(95.71604938271605 22.27777777777778)"/><path d="M300 460.07c0-3.3 2.7-6 6-6h148c3.3 0 6 2.7 6 6v48c0 3.3-2.7 6-6 6H306c-3.3 0-6-2.7-6-6z" stroke="#5e5e5e" stroke-width="3" fill="#fff"/><use xlink:href="#d" transform="matrix(1,0,0,1,312,466.0692746536268) translate(18.679012345679013 22.27777777777778)"/><path d="M620 460.07c0-3.3 2.7-6 6-6h148c3.3 0 6 2.7 6 6v48c0 3.3-2.7 6-6 6H626c-3.3 0-6-2.7-6-6z" stroke="#5e5e5e" stroke-width="3" fill="#c1e4f7"/><use xlink:href="#j" transform="matrix(1,0,0,1,632,466.0692746536268) translate(27.938271604938272 22.27777777777778)"/><use xlink:href="#k" transform="matrix(1,0,0,1,632,466.0692746536268) translate(95.71604938271605 22.27777777777778)"/><path d="M462.5 484.07H600" stroke="#5e5e5e" stroke-width="2" fill="none"/><path d="M462.53 485.07h-1.03v-2h1.03z" fill="#5e5e5e"/><path d="M615.26 484.07L601 488.7v-9.27z" stroke="#5e5e5e" stroke-width="2" fill="#5e5e5e"/><use xlink:href="#l" transform="matrix(1,0,0,1,486.6579861111111,462.29149687584896) translate(0 14.21875)"/><path d="M300 553.07c0-3.3 2.7-6 6-6h148c3.3 0 6 2.7 6 6v48c0 3.3-2.7 6-6 6H306c-3.3 0-6-2.7-6-6z" stroke="#5e5e5e" stroke-width="3" fill="#fff"/><use xlink:href="#d" transform="matrix(1,0,0,1,312,559.0692746536267) translate(18.679012345679013 22.27777777777778)"/><path d="M620 553.07c0-3.3 2.7-6 6-6h148c3.3 0 6 2.7 6 6v48c0 3.3-2.7 6-6 6H626c-3.3 0-6-2.7-6-6z" stroke="#5e5e5e" stroke-width="3" fill="#c1e4f7"/><use xlink:href="#j" transform="matrix(1,0,0,1,632,559.0692746536267) translate(27.938271604938272 22.27777777777778)"/><use xlink:href="#k" transform="matrix(1,0,0,1,632,559.0692746536267) translate(95.71604938271605 22.27777777777778)"/><path d="M480 577.07h2.95m3.93 0h5.9m3.92 0h5.9m3.92 0h5.9m3.92 0h5.9m3.92 0h5.9m3.92 0h5.9m3.92 0h5.9m3.93 0h5.9m3.92 0h5.9m3.92 0h5.9m3.92 0h5.88m3.93 0h5.9m3.93 0h5.9m3.92 0h2.95" stroke="#a3d977" stroke-width="2" fill="none"/><path d="M464.74 577.07l14.26-4.64v9.27z" stroke="#a3d977" stroke-width="2" fill="#fff"/><path d="M618.5 578.07h-1.03v-2h1.03z" fill="#a3d977"/><use xlink:href="#f" transform="matrix(1,0,0,1,487.5847800925926,581.0692746536267) translate(5.63009645061728 14.222222222222223)"/><use xlink:href="#g" transform="matrix(1,0,0,1,487.5847800925926,581.0692746536267) translate(51.951084104938275 14.222222222222223)"/><use xlink:href="#h" transform="matrix(1,0,0,1,487.5847800925926,581.0692746536267) translate(0.005000000000002558 32)"/><path d="M120 640.07c11.05 0 20 13.43 20 30s-8.95 30-20 30H60c-11.05 0-20-13.43-20-30s8.95-30 20-30z" stroke="#5e5e5e" stroke-width="3" fill="#fff"/><use xlink:href="#c" transform="matrix(1,0,0,1,45.00000000000001,645.0692746536267) translate(17.901234567901238 30.27777777777778)"/><path d="M300 646.07c0-3.3 2.7-6 6-6h148c3.3 0 6 2.7 6 6v48c0 3.3-2.7 6-6 6H306c-3.3 0-6-2.7-6-6z" stroke="#5e5e5e" stroke-width="3" fill="#fff"/><use xlink:href="#d" transform="matrix(1,0,0,1,312,652.0692746536267) translate(18.679012345679013 22.27777777777778)"/><path d="M142.46 668.94h2.95m3.94 0h5.9m3.92 0h5.9m3.93 0h5.88m3.93 0h5.9m3.93 0h5.9m3.93 0h5.9m3.92 0h5.9m3.93 0h5.9m3.93 0h5.9m3.92 0h5.9m3.93 0h5.9m3.92 0h5.9m3.93 0h5.9m3.92 0H280" stroke="#a3d977" stroke-width="2" fill="none"/><path d="M142.5 669.94h-1l-.07-2h1.06z" fill="#a3d977"/><path d="M295.26 668.94L281 673.58v-9.27z" stroke="#a3d977" stroke-width="2" fill="#fff"/><use xlink:href="#f" transform="matrix(1,0,0,1,167.56536283433178,672.9407269212412) translate(5.63009645061728 14.222222222222223)"/><use xlink:href="#g" transform="matrix(1,0,0,1,167.56536283433178,672.9407269212412) translate(51.951084104938275 14.222222222222223)"/><use xlink:href="#h" transform="matrix(1,0,0,1,167.56536283433178,672.9407269212412) translate(0.005000000000002558 32)"/><path d="M462.5 763.07h2.95m3.92 0h5.9m3.93 0h5.9m3.92 0h5.9m3.92 0h5.9m3.92 0h5.9m3.92 0h5.9m3.92 0h5.9m3.92 0h5.9m3.93 0h5.9m3.92 0h5.9m3.92 0h5.88m3.93 0h5.9m3.93 0h5.9m3.92 0H600" stroke="#a3d977" stroke-width="2" fill="none"/><path d="M462.53 764.07h-1.03v-2h1.03z" fill="#a3d977"/><path d="M615.26 763.07L601 767.7v-9.27z" stroke="#a3d977" stroke-width="2" fill="#fff"/><use xlink:href="#f" transform="matrix(1,0,0,1,481.2190600049392,767.0692746536267) translate(0 14.222222222222223)"/><use xlink:href="#i" transform="matrix(1,0,0,1,481.2190600049392,767.0692746536267) translate(46.320987654320994 14.222222222222223)"/><path d="M300 739.07c0-3.3 2.7-6 6-6h148c3.3 0 6 2.7 6 6v48c0 3.3-2.7 6-6 6H306c-3.3 0-6-2.7-6-6z" stroke="#5e5e5e" stroke-width="3" fill="#fff"/><use xlink:href="#d" transform="matrix(1,0,0,1,312,745.0692746536267) translate(18.679012345679013 22.27777777777778)"/><path d="M620 739.07c0-3.3 2.7-6 6-6h148c3.3 0 6 2.7 6 6v48c0 3.3-2.7 6-6 6H626c-3.3 0-6-2.7-6-6z" stroke="#5e5e5e" stroke-width="3" fill="#d1bcd2"/><use xlink:href="#j" transform="matrix(1,0,0,1,632,745.0692746536267) translate(27.938271604938272 22.27777777777778)"/><use xlink:href="#m" transform="matrix(1,0,0,1,632,745.0692746536267) translate(95.71604938271605 22.27777777777778)"/><path d="M300 832.07c0-3.3 2.7-6 6-6h148c3.3 0 6 2.7 6 6v48c0 3.3-2.7 6-6 6H306c-3.3 0-6-2.7-6-6z" stroke="#5e5e5e" stroke-width="3" fill="#fff"/><use xlink:href="#d" transform="matrix(1,0,0,1,312,838.0692746536267) translate(18.679012345679013 22.27777777777778)"/><path d="M620 832.07c0-3.3 2.7-6 6-6h148c3.3 0 6 2.7 6 6v48c0 3.3-2.7 6-6 6H626c-3.3 0-6-2.7-6-6z" stroke="#5e5e5e" stroke-width="3" fill="#d1bcd2"/><use xlink:href="#j" transform="matrix(1,0,0,1,632,838.0692746536267) translate(27.938271604938272 22.27777777777778)"/><use xlink:href="#m" transform="matrix(1,0,0,1,632,838.0692746536267) translate(95.71604938271605 22.27777777777778)"/><path d="M462.5 856.07H600" stroke="#5e5e5e" stroke-width="2" fill="none"/><path d="M462.53 857.07h-1.03v-2h1.03z" fill="#5e5e5e"/><path d="M615.26 856.07L601 860.7v-9.27z" stroke="#5e5e5e" stroke-width="2" fill="#5e5e5e"/><use xlink:href="#l" transform="matrix(1,0,0,1,486.6579861111111,834.2914968758489) translate(0 14.21875)"/><path d="M300 925.07c0-3.3 2.7-6 6-6h148c3.3 0 6 2.7 6 6v48c0 3.3-2.7 6-6 6H306c-3.3 0-6-2.7-6-6z" stroke="#5e5e5e" stroke-width="3" fill="#fff"/><use xlink:href="#d" transform="matrix(1,0,0,1,312,931.0692746536267) translate(18.679012345679013 22.27777777777778)"/><path d="M620 925.07c0-3.3 2.7-6 6-6h148c3.3 0 6 2.7 6 6v48c0 3.3-2.7 6-6 6H626c-3.3 0-6-2.7-6-6z" stroke="#5e5e5e" stroke-width="3" fill="#d1bcd2"/><use xlink:href="#j" transform="matrix(1,0,0,1,632,931.0692746536267) translate(27.938271604938272 22.27777777777778)"/><use xlink:href="#m" transform="matrix(1,0,0,1,632,931.0692746536267) translate(95.71604938271605 22.27777777777778)"/><path d="M480 949.07h2.95m3.93 0h5.9m3.92 0h5.9m3.92 0h5.9m3.92 0h5.9m3.92 0h5.9m3.92 0h5.9m3.92 0h5.9m3.93 0h5.9m3.92 0h5.9m3.92 0h5.9m3.92 0h5.88m3.93 0h5.9m3.93 0h5.9m3.92 0h2.95" stroke="#a3d977" stroke-width="2" fill="none"/><path d="M464.74 949.07l14.26-4.64v9.27z" stroke="#a3d977" stroke-width="2" fill="#fff"/><path d="M618.5 950.07h-1.03v-2h1.03z" fill="#a3d977"/><use xlink:href="#f" transform="matrix(1,0,0,1,487.5847800925926,953.0692746536268) translate(5.63009645061728 14.222222222222223)"/><use xlink:href="#g" transform="matrix(1,0,0,1,487.5847800925926,953.0692746536268) translate(51.951084104938275 14.222222222222223)"/><use xlink:href="#h" transform="matrix(1,0,0,1,487.5847800925926,953.0692746536268) translate(0.005000000000002558 32)"/><path d="M300 1018.07c0-3.3 2.7-6 6-6h148c3.3 0 6 2.7 6 6v48c0 3.3-2.7 6-6 6H306c-3.3 0-6-2.7-6-6z" stroke="#5e5e5e" stroke-width="3" fill="#fff"/><use xlink:href="#d" transform="matrix(1,0,0,1,312,1024.0692746536267) translate(18.679012345679013 22.27777777777778)"/><path d="M620 1018.07c0-3.3 2.7-6 6-6h148c3.3 0 6 2.7 6 6v48c0 3.3-2.7 6-6 6H626c-3.3 0-6-2.7-6-6z" stroke="#5e5e5e" stroke-width="3" fill="#c1e4f7"/><use xlink:href="#j" transform="matrix(1,0,0,1,632,1024.0692746536267) translate(27.938271604938272 22.27777777777778)"/><use xlink:href="#k" transform="matrix(1,0,0,1,632,1024.0692746536267) translate(95.71604938271605 22.27777777777778)"/><path d="M462.5 1042.07H600" stroke="#5e5e5e" stroke-width="2" fill="none"/><path d="M462.53 1043.07h-1.03v-2h1.03z" fill="#5e5e5e"/><path d="M615.26 1042.07L601 1046.7v-9.27z" stroke="#5e5e5e" stroke-width="2" fill="#5e5e5e"/><use xlink:href="#n" transform="matrix(1,0,0,1,470.65538194444446,1020.2914968758489) translate(0 14.21875)"/><path d="M300 1111.07c0-3.3 2.7-6 6-6h148c3.3 0 6 2.7 6 6v48c0 3.3-2.7 6-6 6H306c-3.3 0-6-2.7-6-6z" stroke="#5e5e5e" stroke-width="3" fill="#fff"/><use xlink:href="#d" transform="matrix(1,0,0,1,312,1117.0692746536267) translate(18.679012345679013 22.27777777777778)"/><path d="M620 1111.07c0-3.3 2.7-6 6-6h148c3.3 0 6 2.7 6 6v48c0 3.3-2.7 6-6 6H626c-3.3 0-6-2.7-6-6z" stroke="#5e5e5e" stroke-width="3" fill="#d1bcd2"/><g><use xlink:href="#j" transform="matrix(1,0,0,1,632,1117.0692746536267) translate(27.938271604938272 22.27777777777778)"/><use xlink:href="#m" transform="matrix(1,0,0,1,632,1117.0692746536267) translate(95.71604938271605 22.27777777777778)"/></g><path d="M462.5 1135.07H600" stroke="#5e5e5e" stroke-width="2" fill="none"/><path d="M462.53 1136.07h-1.03v-2h1.03z" fill="#5e5e5e"/><path d="M615.26 1135.07L601 1139.7v-9.27z" stroke="#5e5e5e" stroke-width="2" fill="#5e5e5e"/><g><use xlink:href="#n" transform="matrix(1,0,0,1,470.65538194444446,1113.291496875849) translate(0 14.21875)"/></g><path d="M120 1198.07c11.05 0 20 13.43 20 30s-8.95 30-20 30H60c-11.05 0-20-13.43-20-30s8.95-30 20-30z" stroke="#5e5e5e" stroke-width="3" fill="#fff"/><g><use xlink:href="#c" transform="matrix(1,0,0,1,45.00000000000001,1203.0692746536267) translate(17.901234567901238 30.27777777777778)"/></g><path d="M300 1204.07c0-3.3 2.7-6 6-6h148c3.3 0 6 2.7 6 6v48c0 3.3-2.7 6-6 6H306c-3.3 0-6-2.7-6-6z" stroke="#5e5e5e" stroke-width="3" fill="#fff"/><g><use xlink:href="#d" transform="matrix(1,0,0,1,312,1210.0692746536267) translate(18.679012345679013 22.27777777777778)"/></g><path d="M159.96 1226.94h2.95m3.94 0h5.9m3.92 0h5.9m3.93 0h5.88m3.93 0h5.9m3.94 0h5.9m3.92 0h5.9m3.92 0h5.9m3.93 0h5.9m3.93 0h5.9m3.93 0h5.9m3.92 0h5.9m3.92 0h5.9m3.93 0h5.9m3.92 0h2.95" stroke="#a3d977" stroke-width="2" fill="none"/><path d="M144.7 1226.94l14.26-4.63v9.28z" stroke="#a3d977" stroke-width="2" fill="#fff"/><path d="M298.5 1227.94h-1.03v-2h1.03z" fill="#a3d977"/><g><use xlink:href="#f" transform="matrix(1,0,0,1,173.19045928494907,1230.9407269212409) translate(0.005000000000002558 14.222222222222223)"/><use xlink:href="#i" transform="matrix(1,0,0,1,173.19045928494907,1230.9407269212409) translate(46.325987654321 14.222222222222223)"/></g><path d="M820 274.07c0-3.3 2.7-6 6-6h68c3.3 0 6 2.7 6 6v707.07c0 3.3-2.7 6-6 6h-68c-3.3 0-6-2.7-6-6z" fill="none"/><path d="M820 987.14c5.52 0 10-4.48 10-10V637.6c0-5.52 4.48-10 10-10-5.52 0-10-4.47-10-10V278.07c0-5.52-4.48-10-10-10" stroke="#c92d39" stroke-width="3" fill="none"/><g><use xlink:href="#o" transform="matrix(1,0,0,1,855,273.0692746536268) translate(0 332.77777777777777)"/><use xlink:href="#p" transform="matrix(1,0,0,1,855,273.0692746536268) translate(0 359.44444444444446)"/><use xlink:href="#q" transform="matrix(1,0,0,1,855,273.0692746536268) translate(0 386.1111111111111)"/></g><defs><path fill="#333" d="M240 0l2-218c-23 76-54 145-80 218h-23L58-218 59 0H30v-248h44l77 211c21-75 51-140 76-211h43V0h-30" id="r"/><path fill="#333" d="M141-36C126-15 110 5 73 4 37 3 15-17 15-53c-1-64 63-63 125-63 3-35-9-54-41-54-24 1-41 7-42 31l-33-3c5-37 33-52 76-52 45 0 72 20 72 64v82c-1 20 7 32 28 27v20c-31 9-61-2-59-35zM48-53c0 20 12 33 32 33 41-3 63-29 60-74-43 2-92-5-92 41" id="s"/><path fill="#333" d="M114-163C36-179 61-72 57 0H25l-1-190h30c1 12-1 29 2 39 6-27 23-49 58-41v29" id="t"/><path fill="#333" d="M143 0L79-87 56-68V0H24v-261h32v163l83-92h37l-77 82L181 0h-38" id="u"/><path fill="#333" d="M100-194c63 0 86 42 84 106H49c0 40 14 67 53 68 26 1 43-12 49-29l28 8c-11 28-37 45-77 45C44 4 14-33 15-96c1-61 26-98 85-98zm52 81c6-60-76-77-97-28-3 7-6 17-6 28h103" id="v"/><path fill="#333" d="M59-47c-2 24 18 29 38 22v24C64 9 27 4 27-40v-127H5v-23h24l9-43h21v43h35v23H59v120" id="w"/><g id="a"><use transform="matrix(0.0987654320987654,0,0,0.0987654320987654,0,0)" xlink:href="#r"/><use transform="matrix(0.0987654320987654,0,0,0.0987654320987654,29.530864197530853,0)" xlink:href="#s"/><use transform="matrix(0.0987654320987654,0,0,0.0987654320987654,49.283950617283935,0)" xlink:href="#t"/><use transform="matrix(0.0987654320987654,0,0,0.0987654320987654,61.03703703703702,0)" xlink:href="#u"/><use transform="matrix(0.0987654320987654,0,0,0.0987654320987654,78.81481481481478,0)" xlink:href="#v"/><use transform="matrix(0.0987654320987654,0,0,0.0987654320987654,98.56790123456786,0)" xlink:href="#w"/></g><path fill="#333" d="M140-251c81 0 123 46 123 126C263-46 219 4 140 4 59 4 17-45 17-125s42-126 123-126zm0 227c63 0 89-41 89-101s-29-99-89-99c-61 0-89 39-89 99S79-25 140-24" id="x"/><path fill="#333" d="M85-194c31 0 48 13 60 33l-1-100h32l1 261h-30c-2-10 0-23-3-31C134-8 116 4 85 4 32 4 16-35 15-94c0-66 23-100 70-100zm9 24c-40 0-46 34-46 75 0 40 6 74 45 74 42 0 51-32 51-76 0-42-9-74-50-73" id="y"/><g id="b"><use transform="matrix(0.0987654320987654,0,0,0.0987654320987654,0,0)" xlink:href="#x"/><use transform="matrix(0.0987654320987654,0,0,0.0987654320987654,27.654320987654312,0)" xlink:href="#t"/><use transform="matrix(0.0987654320987654,0,0,0.0987654320987654,39.40740740740739,0)" xlink:href="#y"/><use transform="matrix(0.0987654320987654,0,0,0.0987654320987654,59.160493827160465,0)" xlink:href="#v"/><use transform="matrix(0.0987654320987654,0,0,0.0987654320987654,78.91358024691354,0)" xlink:href="#t"/></g><path fill="#333" d="M127-220V0H93v-220H8v-28h204v28h-85" id="z"/><g id="c"><use transform="matrix(0.06172839506172839,0,0,0.06172839506172839,0,0)" xlink:href="#z"/><use transform="matrix(0.06172839506172839,0,0,0.06172839506172839,11.049382716049381,0)" xlink:href="#s"/><use transform="matrix(0.06172839506172839,0,0,0.06172839506172839,23.39506172839506,0)" xlink:href="#u"/><use transform="matrix(0.06172839506172839,0,0,0.06172839506172839,34.50617283950617,0)" xlink:href="#v"/><use transform="matrix(0.06172839506172839,0,0,0.06172839506172839,46.85185185185185,0)" xlink:href="#t"/></g><path fill="#333" d="M117-194c89-4 53 116 60 194h-32v-121c0-31-8-49-39-48C34-167 62-67 57 0H25l-1-190h30c1 10-1 24 2 32 11-22 29-35 61-36" id="A"/><path fill="#333" d="M177-190C167-65 218 103 67 71c-23-6-38-20-44-43l32-5c15 47 100 32 89-28v-30C133-14 115 1 83 1 29 1 15-40 15-95c0-56 16-97 71-98 29-1 48 16 59 35 1-10 0-23 2-32h30zM94-22c36 0 50-32 50-73 0-42-14-75-50-75-39 0-46 34-46 75s6 73 46 73" id="B"/><path fill="#333" d="M100-194c62-1 85 37 85 99 1 63-27 99-86 99S16-35 15-95c0-66 28-99 85-99zM99-20c44 1 53-31 53-75 0-43-8-75-51-75s-53 32-53 75 10 74 51 75" id="C"/><path fill="#333" d="M108 0H70L1-190h34L89-25l56-165h34" id="D"/><g id="d"><use transform="matrix(0.06172839506172839,0,0,0.06172839506172839,0,0)" xlink:href="#r"/><use transform="matrix(0.06172839506172839,0,0,0.06172839506172839,18.456790123456788,0)" xlink:href="#s"/><use transform="matrix(0.06172839506172839,0,0,0.06172839506172839,30.80246913580247,0)" xlink:href="#A"/><use transform="matrix(0.06172839506172839,0,0,0.06172839506172839,43.148148148148145,0)" xlink:href="#B"/><use transform="matrix(0.06172839506172839,0,0,0.06172839506172839,55.49382716049382,0)" xlink:href="#t"/><use transform="matrix(0.06172839506172839,0,0,0.06172839506172839,62.8395061728395,0)" xlink:href="#C"/><use transform="matrix(0.06172839506172839,0,0,0.06172839506172839,75.18518518518518,0)" xlink:href="#D"/><use transform="matrix(0.06172839506172839,0,0,0.06172839506172839,86.29629629629629,0)" xlink:href="#v"/></g><path fill="#333" d="M934-1102c199 0 220 177 220 381V0H926c-2-260 10-533-4-785-4-72-14-138-83-138-34 0-61 27-81 81s-29 134-29 241V0H501c-2-260 9-533-5-785-4-72-13-138-82-138-46 0-65 47-80 93-21 67-30 155-30 248V0H75c-3-360 6-732-6-1082h209c6 50 3 123 8 175 36-100 83-195 216-195 135 0 166 79 196 196 42-105 93-196 236-196" id="E"/><path fill="#333" d="M775-193C708-75 621 20 439 20 226 20 106-93 106-306c0-251 170-341 417-346l223-4c4-143-12-264-148-264-103 0-141 58-150 153l-293-14c37-219 194-321 455-321 263 0 418 130 417 390v392c1 84 5 161 89 160 21 0 42-2 62-6v152c-57 15-108 27-180 26-145 0-202-73-217-205h-6zm-256 17c168 0 234-139 227-325-166 4-347-25-347 173 0 94 33 152 120 152" id="F"/><path fill="#333" d="M875-1102c70 0 148 7 206 17v237c-110-17-267-37-359 15-123 69-192 207-192 395V0H250c-10-367 32-789-52-1082h271c19 69 36 149 46 228h4c52-151 151-250 356-248" id="G"/><path fill="#333" d="M864 0L575-490l-121 84V0H173v-1484h281v850l386-448h302L762-660 1171 0H864" id="H"/><path fill="#333" d="M1113-274C1038-96 884 20 626 20c-352 0-526-209-526-566 0-358 185-556 530-556 358 0 496 251 499 615H395c5 180 68 319 245 319 102 0 186-45 208-129zM857-663c-6-177-128-307-315-247-94 30-141 121-145 247h460" id="I"/><path fill="#333" d="M711 13c-250 0-386-99-385-349l2-556H161v-190h181l88-282h176v282h385v190H606v530c-10 130 45 186 174 184 91-2 176-11 255-27v186C933-1 833 13 711 13" id="J"/><path fill="#333" d="M615-1370c385 0 542 273 542 691 0 230-47 404-140 522S790 20 615 20C231 20 72-262 72-679c0-419 158-691 543-691zM797-330c77-133 78-564 0-695-44-73-101-113-182-113s-139 40-183 114c-79 133-78 560 0 694 45 77 102 118 183 118s138-41 182-118" id="K"/><path fill="#333" d="M802-909c-3-189-2-383-2-575h281v1248c-1 83 4 168 8 236H817c-9-50-14-117-15-176h-4C735-49 651 20 482 20 191 20 97-238 97-539c0-243 66-432 221-519 50-28 108-42 175-42 162 2 253 78 309 191zm-70 658c91-113 93-462 2-584-46-61-145-100-224-53-96 56-119 190-120 349 0 123 17 214 52 275 46 82 130 115 222 74 25-12 46-33 68-61" id="L"/><g id="e"><use transform="matrix(0.008680555555555556,0,0,0.008680555555555556,0,0)" xlink:href="#E"/><use transform="matrix(0.008680555555555556,0,0,0.008680555555555556,10.668402777777779,0)" xlink:href="#F"/><use transform="matrix(0.008680555555555556,0,0,0.008680555555555556,21.336805555555557,0)" xlink:href="#G"/><use transform="matrix(0.008680555555555556,0,0,0.008680555555555556,32.005208333333336,0)" xlink:href="#H"/><use transform="matrix(0.008680555555555556,0,0,0.008680555555555556,42.673611111111114,0)" xlink:href="#I"/><use transform="matrix(0.008680555555555556,0,0,0.008680555555555556,53.34201388888889,0)" xlink:href="#J"/><use transform="matrix(0.008680555555555556,0,0,0.008680555555555556,64.01041666666667,0)" xlink:href="#K"/><use transform="matrix(0.008680555555555556,0,0,0.008680555555555556,74.67881944444446,0)" xlink:href="#G"/><use transform="matrix(0.008680555555555556,0,0,0.008680555555555556,85.34722222222223,0)" xlink:href="#L"/><use transform="matrix(0.008680555555555556,0,0,0.008680555555555556,96.015625,0)" xlink:href="#I"/><use transform="matrix(0.008680555555555556,0,0,0.008680555555555556,106.68402777777777,0)" xlink:href="#G"/></g><path fill="#333" d="M137-138c1-29-70-34-71-4 15 46 118 7 119 86 1 83-164 76-172 9l43-7c4 19 20 25 44 25 33 8 57-30 24-41C81-84 22-81 20-136c-2-80 154-74 161-7" id="M"/><path fill="#333" d="M185-48c-13 30-37 53-82 52C43 2 14-33 14-96s30-98 90-98c62 0 83 45 84 108H66c0 31 8 55 39 56 18 0 30-7 34-22zm-45-69c5-46-57-63-70-21-2 6-4 13-4 21h74" id="N"/><path fill="#333" d="M135-194c87-1 58 113 63 194h-50c-7-57 23-157-34-157-59 0-34 97-39 157H25l-1-190h47c2 12-1 28 3 38 12-26 28-41 61-42" id="O"/><path fill="#333" d="M88-194c31-1 46 15 58 34l-1-101h50l1 261h-48c-2-10 0-23-3-31C134-8 116 4 84 4 32 4 16-41 15-95c0-56 19-97 73-99zm17 164c33 0 40-30 41-66 1-37-9-64-41-64s-38 30-39 65c0 43 13 65 39 65" id="P"/><g id="f"><use transform="matrix(0.04938271604938272,0,0,0.04938271604938272,0,0)" xlink:href="#M"/><use transform="matrix(0.04938271604938272,0,0,0.04938271604938272,9.876543209876544,0)" xlink:href="#N"/><use transform="matrix(0.04938271604938272,0,0,0.04938271604938272,19.75308641975309,0)" xlink:href="#O"/><use transform="matrix(0.04938271604938272,0,0,0.04938271604938272,30.567901234567906,0)" xlink:href="#P"/></g><path fill="#333" d="M115-3C79 11 28 4 28-45v-112H4v-33h27l15-45h31v45h36v33H77v99c-1 23 16 31 38 25v30" id="Q"/><path fill="#333" d="M110-194c64 0 96 36 96 99 0 64-35 99-97 99-61 0-95-36-95-99 0-62 34-99 96-99zm-1 164c35 0 45-28 45-65 0-40-10-65-43-65-34 0-45 26-45 65 0 36 10 65 43 65" id="R"/><path fill="#333" d="M147 0L96-86 75-71V0H25v-261h50v150l67-79h53l-66 74L201 0h-54" id="S"/><g id="g"><use transform="matrix(0.04938271604938272,0,0,0.04938271604938272,0,0)" xlink:href="#Q"/><use transform="matrix(0.04938271604938272,0,0,0.04938271604938272,5.8765432098765435,0)" xlink:href="#R"/><use transform="matrix(0.04938271604938272,0,0,0.04938271604938272,16.691358024691358,0)" xlink:href="#S"/><use transform="matrix(0.04938271604938272,0,0,0.04938271604938272,26.567901234567902,0)" xlink:href="#N"/><use transform="matrix(0.04938271604938272,0,0,0.04938271604938272,36.44444444444444,0)" xlink:href="#O"/></g><path fill="#333" d="M67-93c0 74 22 123 53 168H70C40 30 18-18 18-93s22-123 52-168h50c-32 44-53 94-53 168" id="T"/><path fill="#333" d="M768-1103c247 0 336 167 336 416V0H824v-619c-3-164-24-273-171-273-164 0-229 142-229 312V0H143c-4-359 9-736-8-1082h268c7 63 12 146 13 215h4c67-145 160-236 348-236" id="U"/><path fill="#333" d="M622-916c-112 2-200 14-200 111 0 90 89 101 168 121 234 58 514 77 514 368C1104-4 751 54 434 5 267-21 161-112 121-270l247-37c24 111 113 145 252 141 114-3 226-12 226-124 0-101-103-113-192-134-225-54-490-76-490-351 0-247 201-328 458-328 245 0 413 88 457 292l-249 26c-16-98-92-133-208-131" id="V"/><path fill="#333" d="M844-1321c-130 0-195 53-191 182v57h443v190H653V0H373v-892H117v-190h256v-83c5-247 162-348 422-349 120-1 232 13 327 28v184c-84-10-183-19-278-19" id="W"/><path fill="#333" d="M462-1121v384h621v228H462V0H167v-1349h939v228H462" id="X"/><path fill="#333" d="M616-1102c361 0 521 202 521 560 0 354-171 562-527 562C259 20 92-192 92-542c0-351 169-560 524-560zm-9 930c200-2 236-165 236-370 0-199-27-367-223-367-195 0-233 146-233 367 0 129 18 223 55 282s92 88 165 88" id="Y"/><path fill="#333" d="M102-93c0 74-22 123-52 168H0C30 29 54-18 53-93c0-74-22-123-53-168h50c30 45 52 94 52 168" id="Z"/><g id="h"><use transform="matrix(0.03703703703703704,0,0,0.03703703703703704,0,0)" xlink:href="#T"/><use transform="matrix(0.006510416666666667,0,0,0.006510416666666667,4.407407407407408,0)" xlink:href="#J"/><use transform="matrix(0.006510416666666667,0,0,0.006510416666666667,12.408709490740742,0)" xlink:href="#G"/><use transform="matrix(0.006510416666666667,0,0,0.006510416666666667,20.410011574074076,0)" xlink:href="#F"/><use transform="matrix(0.006510416666666667,0,0,0.006510416666666667,28.411313657407412,0)" xlink:href="#U"/><use transform="matrix(0.006510416666666667,0,0,0.006510416666666667,36.41261574074075,0)" xlink:href="#V"/><use transform="matrix(0.006510416666666667,0,0,0.006510416666666667,44.41391782407408,0)" xlink:href="#W"/><use transform="matrix(0.006510416666666667,0,0,0.006510416666666667,52.41521990740742,0)" xlink:href="#I"/><use transform="matrix(0.006510416666666667,0,0,0.006510416666666667,60.416521990740755,0)" xlink:href="#G"/><use transform="matrix(0.006510416666666667,0,0,0.006510416666666667,68.41782407407409,0)" xlink:href="#X"/><use transform="matrix(0.006510416666666667,0,0,0.006510416666666667,76.41912615740742,0)" xlink:href="#G"/><use transform="matrix(0.006510416666666667,0,0,0.006510416666666667,84.42042824074075,0)" xlink:href="#Y"/><use transform="matrix(0.006510416666666667,0,0,0.006510416666666667,92.42173032407408,0)" xlink:href="#E"/><use transform="matrix(0.03703703703703704,0,0,0.03703703703703704,100.4230324074074,0)" xlink:href="#Z"/></g><g id="i"><use transform="matrix(0.04938271604938272,0,0,0.04938271604938272,0,0)" xlink:href="#Q"/><use transform="matrix(0.04938271604938272,0,0,0.04938271604938272,5.8765432098765435,0)" xlink:href="#R"/><use transform="matrix(0.04938271604938272,0,0,0.04938271604938272,16.691358024691358,0)" xlink:href="#S"/><use transform="matrix(0.04938271604938272,0,0,0.04938271604938272,26.567901234567902,0)" xlink:href="#N"/><use transform="matrix(0.04938271604938272,0,0,0.04938271604938272,36.44444444444444,0)" xlink:href="#O"/></g><g id="j"><use transform="matrix(0.06172839506172839,0,0,0.06172839506172839,0,0)" xlink:href="#r"/><use transform="matrix(0.06172839506172839,0,0,0.06172839506172839,18.456790123456788,0)" xlink:href="#s"/><use transform="matrix(0.06172839506172839,0,0,0.06172839506172839,30.80246913580247,0)" xlink:href="#u"/><use transform="matrix(0.06172839506172839,0,0,0.06172839506172839,41.91358024691358,0)" xlink:href="#v"/><use transform="matrix(0.06172839506172839,0,0,0.06172839506172839,54.25925925925926,0)" xlink:href="#t"/></g><path fill="#333" d="M27 0v-27h64v-190l-56 39v-29l58-41h29v221h61V0H27" id="aa"/><use transform="matrix(0.06172839506172839,0,0,0.06172839506172839,0,0)" xlink:href="#aa" id="k"/><path fill="#333" d="M762-1121V0H467v-1121H61v-228h1107v228H762" id="ab"/><g id="l"><use transform="matrix(0.008680555555555556,0,0,0.008680555555555556,0,0)" xlink:href="#E"/><use transform="matrix(0.008680555555555556,0,0,0.008680555555555556,10.668402777777779,0)" xlink:href="#F"/><use transform="matrix(0.008680555555555556,0,0,0.008680555555555556,21.336805555555557,0)" xlink:href="#H"/><use transform="matrix(0.008680555555555556,0,0,0.008680555555555556,32.005208333333336,0)" xlink:href="#I"/><use transform="matrix(0.008680555555555556,0,0,0.008680555555555556,42.673611111111114,0)" xlink:href="#G"/><use transform="matrix(0.008680555555555556,0,0,0.008680555555555556,53.34201388888889,0)" xlink:href="#ab"/><use transform="matrix(0.008680555555555556,0,0,0.008680555555555556,64.01041666666667,0)" xlink:href="#G"/><use transform="matrix(0.008680555555555556,0,0,0.008680555555555556,74.67881944444446,0)" xlink:href="#F"/><use transform="matrix(0.008680555555555556,0,0,0.008680555555555556,85.34722222222223,0)" xlink:href="#L"/><use transform="matrix(0.008680555555555556,0,0,0.008680555555555556,96.015625,0)" xlink:href="#I"/></g><path fill="#333" d="M101-251c82-7 93 87 43 132L82-64C71-53 59-42 53-27h129V0H18c2-99 128-94 128-182 0-28-16-43-45-43s-46 15-49 41l-32-3c6-41 34-60 81-64" id="ac"/><use transform="matrix(0.06172839506172839,0,0,0.06172839506172839,0,0)" xlink:href="#ac" id="m"/><path fill="#333" d="M616-1349c316 3 526 118 526 426 0 301-201 442-514 447H431V0H136v-1349h480zm-25 646c164 1 254-62 254-215 0-157-99-200-262-202H431v417h160" id="ad"/><path fill="#333" d="M424-1484c-2 206 5 424-8 618h4c67-145 160-234 348-236 251-3 335 167 336 416V0H824v-621c0-150-23-276-173-270-163 7-227 142-227 312V0H143v-1484h281" id="ae"/><g id="n"><use transform="matrix(0.008680555555555556,0,0,0.008680555555555556,0,0)" xlink:href="#E"/><use transform="matrix(0.008680555555555556,0,0,0.008680555555555556,10.668402777777779,0)" xlink:href="#F"/><use transform="matrix(0.008680555555555556,0,0,0.008680555555555556,21.336805555555557,0)" xlink:href="#H"/><use transform="matrix(0.008680555555555556,0,0,0.008680555555555556,32.005208333333336,0)" xlink:href="#I"/><use transform="matrix(0.008680555555555556,0,0,0.008680555555555556,42.673611111111114,0)" xlink:href="#G"/><use transform="matrix(0.008680555555555556,0,0,0.008680555555555556,53.34201388888889,0)" xlink:href="#ad"/><use transform="matrix(0.008680555555555556,0,0,0.008680555555555556,64.01041666666667,0)" xlink:href="#Y"/><use transform="matrix(0.008680555555555556,0,0,0.008680555555555556,74.67881944444446,0)" xlink:href="#V"/><use transform="matrix(0.008680555555555556,0,0,0.008680555555555556,85.34722222222223,0)" xlink:href="#J"/><use transform="matrix(0.008680555555555556,0,0,0.008680555555555556,96.015625,0)" xlink:href="#ae"/><use transform="matrix(0.008680555555555556,0,0,0.008680555555555556,106.68402777777777,0)" xlink:href="#Y"/><use transform="matrix(0.008680555555555556,0,0,0.008680555555555556,117.35243055555554,0)" xlink:href="#Y"/><use transform="matrix(0.008680555555555556,0,0,0.008680555555555556,128.02083333333331,0)" xlink:href="#H"/></g><path fill="#c92d39" d="M140-251c81 0 123 46 123 126C263-46 219 4 140 4 59 4 17-45 17-125s42-126 123-126zm0 227c63 0 89-41 89-101s-29-99-89-99c-61 0-89 39-89 99S79-25 140-24" id="af"/><path fill="#c92d39" d="M114-163C36-179 61-72 57 0H25l-1-190h30c1 12-1 29 2 39 6-27 23-49 58-41v29" id="ag"/><path fill="#c92d39" d="M85-194c31 0 48 13 60 33l-1-100h32l1 261h-30c-2-10 0-23-3-31C134-8 116 4 85 4 32 4 16-35 15-94c0-66 23-100 70-100zm9 24c-40 0-46 34-46 75 0 40 6 74 45 74 42 0 51-32 51-76 0-42-9-74-50-73" id="ah"/><path fill="#c92d39" d="M100-194c63 0 86 42 84 106H49c0 40 14 67 53 68 26 1 43-12 49-29l28 8c-11 28-37 45-77 45C44 4 14-33 15-96c1-61 26-98 85-98zm52 81c6-60-76-77-97-28-3 7-6 17-6 28h103" id="ai"/><g id="o"><use transform="matrix(0.06172839506172839,0,0,0.06172839506172839,0,0)" xlink:href="#af"/><use transform="matrix(0.06172839506172839,0,0,0.06172839506172839,17.28395061728395,0)" xlink:href="#ag"/><use transform="matrix(0.06172839506172839,0,0,0.06172839506172839,24.629629629629626,0)" xlink:href="#ah"/><use transform="matrix(0.06172839506172839,0,0,0.06172839506172839,36.9753086419753,0)" xlink:href="#ai"/><use transform="matrix(0.06172839506172839,0,0,0.06172839506172839,49.32098765432098,0)" xlink:href="#ag"/></g><path fill="#c92d39" d="M160-131c35 5 61 23 61 61C221 17 115-2 30 0v-248c76 3 177-17 177 60 0 33-19 50-47 57zm-97-11c50-1 110 9 110-42 0-47-63-36-110-37v79zm0 115c55-2 124 14 124-45 0-56-70-42-124-44v89" id="aj"/><path fill="#c92d39" d="M100-194c62-1 85 37 85 99 1 63-27 99-86 99S16-35 15-95c0-66 28-99 85-99zM99-20c44 1 53-31 53-75 0-43-8-75-51-75s-53 32-53 75 10 74 51 75" id="ak"/><path fill="#c92d39" d="M143 0L79-87 56-68V0H24v-261h32v163l83-92h37l-77 82L181 0h-38" id="al"/><g id="p"><use transform="matrix(0.06172839506172839,0,0,0.06172839506172839,0,0)" xlink:href="#aj"/><use transform="matrix(0.06172839506172839,0,0,0.06172839506172839,14.814814814814813,0)" xlink:href="#ak"/><use transform="matrix(0.06172839506172839,0,0,0.06172839506172839,27.160493827160494,0)" xlink:href="#ak"/><use transform="matrix(0.06172839506172839,0,0,0.06172839506172839,39.50617283950617,0)" xlink:href="#al"/></g><path fill="#c92d39" d="M30 0v-248h33v221h125V0H30" id="am"/><path fill="#c92d39" d="M96-169c-40 0-48 33-48 73s9 75 48 75c24 0 41-14 43-38l32 2c-6 37-31 61-74 61-59 0-76-41-82-99-10-93 101-131 147-64 4 7 5 14 7 22l-32 3c-4-21-16-35-41-35" id="an"/><g id="q"><use transform="matrix(0.06172839506172839,0,0,0.06172839506172839,0,0)" xlink:href="#am"/><use transform="matrix(0.06172839506172839,0,0,0.06172839506172839,12.345679012345679,0)" xlink:href="#ak"/><use transform="matrix(0.06172839506172839,0,0,0.06172839506172839,24.691358024691358,0)" xlink:href="#an"/><use transform="matrix(0.06172839506172839,0,0,0.06172839506172839,35.80246913580247,0)" xlink:href="#al"/></g></defs></g></svg>